<svg width="634" height="668" viewBox="0 0 634 668" fill="none" xmlns="http://www.w3.org/2000/svg">
<path d="M300 0.666687C229.276 0.666687 161.448 28.7618 111.438 78.7715C61.4285 128.781 33.3333 196.609 33.3333 267.333V330.667C23.2778 339.428 15.1301 350.163 9.39604 362.204C3.66196 374.246 0.463785 387.338 0 400.667C0.759245 419.995 7.33959 438.643 18.8788 454.167C30.4179 469.692 46.3777 481.368 64.6667 487.667C108 591.333 195 667.333 300 667.333H400V600.667H300C224.667 600.667 156.333 544 122 454.333L115 436L95.3333 434C87.3241 432.868 79.9998 428.862 74.7255 422.729C69.4513 416.597 66.5871 408.755 66.6667 400.667C66.7018 394.85 68.2586 389.143 71.1825 384.114C74.1063 379.085 78.2954 374.909 83.3333 372L100 362.333V300.667C100 291.826 103.512 283.348 109.763 277.096C116.014 270.845 124.493 267.333 133.333 267.333H466.667C475.507 267.333 483.986 270.845 490.237 277.096C496.488 283.348 500 291.826 500 300.667V467.333H363.667C360.641 458.848 355.378 451.337 348.435 445.596C341.492 439.855 333.127 436.096 324.224 434.717C315.321 433.338 306.211 434.39 297.857 437.762C289.503 441.134 282.215 446.701 276.763 453.874C271.312 461.046 267.9 469.559 266.888 478.511C265.876 487.463 267.301 496.522 271.014 504.731C274.726 512.94 280.587 519.993 287.978 525.145C295.369 530.297 304.014 533.356 313 534H566.667C584.348 534 601.305 526.976 613.807 514.474C626.31 501.971 633.333 485.014 633.333 467.333V400.667C633.333 382.986 626.31 366.029 613.807 353.526C601.305 341.024 584.348 334 566.667 334V267.333C566.667 196.609 538.572 128.781 488.562 78.7715C438.552 28.7618 370.724 0.666687 300 0.666687Z" fill="white"/>
</svg>
